<svg xmlns="http://www.w3.org/2000/svg" viewBox="0 0 48 48" fill="none">
  <!-- Gradient definitions -->
  <defs>
    <linearGradient id="gradient1" x1="0%" y1="0%" x2="100%" y2="100%">
      <stop offset="0%" style="stop-color:#ec4899;stop-opacity:1" />
      <stop offset="50%" style="stop-color:#8b5cf6;stop-opacity:1" />
      <stop offset="100%" style="stop-color:#3b82f6;stop-opacity:1" />
    </linearGradient>
    <linearGradient id="gradient2" x1="100%" y1="0%" x2="0%" y2="100%">
      <stop offset="0%" style="stop-color:#f472b6;stop-opacity:1" />
      <stop offset="100%" style="stop-color:#a78bfa;stop-opacity:1" />
    </linearGradient>
  </defs>

  <!-- Butterfly/flora-fauna inspired shape - left wing -->
  <path d="M24 24C24 24 8 12 6 20C4 28 18 32 24 24Z" fill="url(#gradient1)" opacity="0.9"/>

  <!-- Right wing -->
  <path d="M24 24C24 24 40 12 42 20C44 28 30 32 24 24Z" fill="url(#gradient2)" opacity="0.9"/>

  <!-- Lower left wing -->
  <path d="M24 24C24 24 12 36 8 32C4 28 16 22 24 24Z" fill="url(#gradient2)" opacity="0.8"/>

  <!-- Lower right wing -->
  <path d="M24 24C24 24 36 36 40 32C44 28 32 22 24 24Z" fill="url(#gradient1)" opacity="0.8"/>

  <!-- Center body -->
  <ellipse cx="24" cy="24" rx="3" ry="6" fill="#1f2937"/>

  <!-- AI sparkle dots -->
  <circle cx="24" cy="8" r="1.5" fill="url(#gradient1)"/>
  <circle cx="10" cy="24" r="1" fill="url(#gradient2)"/>
  <circle cx="38" cy="24" r="1" fill="url(#gradient1)"/>
</svg>
